<svg width="36" height="36" viewBox="0 0 36 36" fill="none" xmlns="http://www.w3.org/2000/svg">
<path d="M7 12C10.3137 12 13 9.31371 13 6C13 2.68629 10.3137 0 7 0C3.68629 0 1 2.68629 1 6C1 9.31371 3.68629 12 7 12Z" fill="#FFCC4D"/>
<path d="M18 36C21.3137 36 24 33.3137 24 30C24 26.6863 21.3137 24 18 24C14.6863 24 12 26.6863 12 30C12 33.3137 14.6863 36 18 36Z" fill="#FFCC4D"/>
<path d="M18 34C20.2091 34 22 32.2091 22 30C22 27.7909 20.2091 26 18 26C15.7909 26 14 27.7909 14 30C14 32.2091 15.7909 34 18 34Z" fill="#DD2E44"/>
<path d="M29 12C32.3137 12 35 9.31371 35 6C35 2.68629 32.3137 0 29 0C25.6863 0 23 2.68629 23 6C23 9.31371 25.6863 12 29 12Z" fill="#FFCC4D"/>
<path d="M7 10C9.20914 10 11 8.20914 11 6C11 3.79086 9.20914 2 7 2C4.79086 2 3 3.79086 3 6C3 8.20914 4.79086 10 7 10Z" fill="#E6AAAA"/>
<path d="M29 10C31.2091 10 33 8.20914 33 6C33 3.79086 31.2091 2 29 2C26.7909 2 25 3.79086 25 6C25 8.20914 26.7909 10 29 10Z" fill="#E6AAAA"/>
<path d="M34 22C34 29 29.077 29 29.077 29H6.923C6.923 29 2 29 2 22C2 22 3.231 0 18 0C32.77 0 34 22 34 22Z" fill="#FFCC4D"/>
<path d="M11 17C11 17 11 15 13 15C15 15 15 17 15 17V19C15 19 15 21 13 21C11 21 11 19 11 19V17ZM21 17C21 17 21 15 23 15C25 15 25 17 25 17V19C25 19 25 21 23 21C21 21 21 19 21 19V17Z" fill="#272B2B"/>
<path d="M23.678 23C21.276 23 19.177 23.953 18 25.378C16.823 23.953 14.723 23 12.321 23C1.99998 23 2.04298 23.421 1.99998 26.182C1.91298 31.792 8.62998 33.082 12.321 33C14.722 32.947 16.823 32.011 18 30.603C19.177 32.011 21.276 32.948 23.678 33C27.369 33.082 34.087 31.792 33.999 26.182C33.956 23.421 33.999 23 23.678 23Z" fill="white"/>
<path d="M33.66 25.242C33.864 25.521 33.993 25.83 33.999 26.181C34.029 28.086 33.254 29.484 32.084 30.508L26.999 31L33.66 25.242ZM15 25C14 26 17 29 18 29C19 29 22 26 21 25C20 24 16 24 15 25ZM9.99999 3C12.667 5 18 7 18 7C18 7 23.333 5 26 3L18 4L9.99999 3ZM18 2C18 2 19.652 1.38 21.576 0.486C20.48 0.178 19.295 0 18 0C16.705 0 15.519 0.178 14.424 0.486C16.348 1.38 18 2 18 2ZM11 9C14 11 18 13 18 13C18 13 22 11 25 9L18 10L11 9ZM31.645 11.285L27 15L33.006 15.75C32.672 14.349 32.229 12.822 31.645 11.285ZM33.556 18.444L28 24H33.835C33.937 23.405 34 22.749 34 22C34 22 33.919 20.57 33.556 18.444ZM2.44399 18.444C2.08199 20.57 1.99999 22 1.99999 22C1.99999 22.748 2.06299 23.405 2.16499 24H7.99999L2.44399 18.444ZM2.33899 25.242C2.13499 25.521 2.00599 25.83 1.99999 26.182C1.96999 28.087 2.74499 29.485 3.91599 30.509L8.99999 31L2.33899 25.242ZM8.99999 15L4.35599 11.285C3.77199 12.822 3.32799 14.349 2.99499 15.751L8.99999 15Z" fill="#272B2B"/>
</svg>
